# xmcd
#
# Track frame offsets:
#	150
#	17925
#	33750
#	47175
#	63525
#	81225
#	96600
#	111750
#	129750
#	144825
#	161025
#	178800
#	194625
#	208050
#	224400
#	242100
#	257475
#	272625
#	290625
#	305700
#
# Disc length: 4295 seconds
#
# Revision: 2
# Processed by: cddbd v1.5.2PL0 Copyright (c) Steve Scherf et al.
# Submitted via: audiograbber 1.83.01
#
DISCID=3710c514
DTITLE=CHM - CHM0006C
DYEAR=1900
DGENRE=Karaoke
TTITLE0=Tim Mcgraw - Somethings Never Change
TTITLE1=Jo Dee Messina - No Time For Tears
TTITLE2=Brooks and Dunn - You'll Always Be Loved By Me
TTITLE3=Judds - Stuck In Love
TTITLE4=Lee Ann Womack - I Hope You Dance
TTITLE5=Chad Brock - Yes!
TTITLE6=Martina Mcbride - There You Are
TTITLE7=Keith Urban - Your Everything
TTITLE8=Sons Of The Desert - Change
TTITLE9=Kinleys - She Ain't The Girl For You
TTITLE10=Tim Mcgraw  - Somethings Never Change (Vocals)
TTITLE11=Jo Dee Messina  - No Time For Tears Vocals
TTITLE12=Brooks and Dunn   - You'll Always Be Loved By Me (Vocals)
TTITLE13=Judds  - Stuck In Love (Vocals)
TTITLE14=Lee Ann Womack  - I Hope You Dance ( Vocals)
TTITLE15=Chad Brock  -  Yes! (Vocals)
TTITLE16=Martina Mcbride  - There You Are (Vocals)
TTITLE17=Kieth Urban    - Your Everything (Vocals)
TTITLE18=Sons Of The Desert  - Change (Vocals)
TTITLE19=Kinleys - She Ain't The Girl For You (Vocals)
EXTD=
EXTT0=
EXTT1=
EXTT2=
EXTT3=
EXTT4=
EXTT5=
EXTT6=
EXTT7=
EXTT8=
EXTT9=
EXTT10=
EXTT11=
EXTT12=
EXTT13=
EXTT14=
EXTT15=
EXTT16=
EXTT17=
EXTT18=
EXTT19=
PLAYORDER=
